<?xml version="1.0" encoding="utf-8"?>
<!-- Generator: Adobe Illustrator 19.0.0, SVG Export Plug-In . SVG Version: 6.00 Build 0)  -->
<svg version="1.1" id="Layer_1" xmlns="http://www.w3.org/2000/svg" xmlns:xlink="http://www.w3.org/1999/xlink" x="0px" y="0px"
	 viewBox="-120 28.9 596 272.2" style="enable-background:new -120 28.9 596 272.2;" xml:space="preserve">
<style type="text/css">
	.st0{fill:#CCCCCC;}
</style>
<g>
	<path class="st0" d="M342.9,180.9c-3.8-6.8-9.5-12.7-9.2-21.5c0.1-3.2-2.1-6.4-3.4-10c-3.7,2.3-5.9,3.6-6.7-2.2
		c-0.4-3.2-4.4-5.9-6.5-8.6c-8.4-1.1-11.8,6-16.9,10.1c-3.1,2.5-4.8,5.1-4.4,9.5c0.4,3.8-1,7.6-6.2,9.9c-4.1-9.1-8.1-18.2-12.3-27.5
		c-2.3,1-4.2,0.1-6.4-3.2c-2.3-3.4-5.8-6.6-11.1-5.9c-5.2,0.7-10.6,1.3-14.9-3.1c-0.3-0.3-1-0.3-1.4-0.2c-5.3,1.8-8.3-1.4-11.4-4.9
		c-0.8-0.9-2.6-1.1-3.9-1.6c0.3,1.4,0.3,3,1.1,4.1c1.9,2.6,4,5,6.3,7.1c0.7,0.7,2.5,0.7,3.6,0.3c1.7-0.6,3.1-1.9,4.2-2.6
		c2,1.5,3.8,3,5.8,4.1c2.7,1.6,3.4,3.2,1.6,6c-5.3,8.6-14.4,11.4-22.8,15.2c-2.5,1.1-5.3,1.8-7.9,2.7c1.4,4.5,1.4,4.5,15.7,1.3
		c0.1,6.7-3.1,11.8-6.9,16.4c-3.9,4.7-8.4,8.8-13,12.9c-5.3,4.7-5.2,10.2-3,16.1c3,7.9,1.6,12.3-5.2,16.9c-3.1,2.1-7.5,4.3-5,9.8
		c0.5,1.1,0,3.9-0.7,4.1c-6.4,2.4-5.5,9.8-10,13.7c-4.2,3.7-8.1,6.4-14,7.5c-7.5,1.4-10.8-0.1-12.9-7.8c-2.6-9.2-7.4-17.8-10.6-26.8
		c-0.9-2.4,0-6.1,1.4-8.6c4.6-8.4,1.1-15.4-3.7-21.8c-2.4-3.3-3.8-5.6-2.7-9.7c1.6-6,1-6.4-5.5-6.9c-0.8-0.1-1.9-0.3-2.2-0.8
		c-2.9-5.5-7-3.2-11.2-2.2c-5.5,1.2-11.3,3.1-16.7,2.4c-4-0.6-7.6-4.8-11-7.7c-1.8-1.5-2.7-4.2-4.5-5.7c-3.8-3.1-4.1-6.6-2.5-11
		c0.8-2.1,1.1-4.5,0.9-6.8c-0.7-7.1,3.7-15.3,9.9-19.1c1.9-1.1,3-3.6,4.4-5.4c1.6-2,3.2-4,4.7-6.1c1.1-1.5,2.2-3,3.4-4.5
		c-1.2-0.8-2.8-1.4-3.5-2.5c-1-1.5-1.9-3.4-1.8-5.1c0.1-2.6,1-5.1,1.7-8.4c2.5,0,5.4,0.3,8.3-0.1c2-0.3,5-0.8,5.7-2.2
		c1.4-3.1-0.8-5.2-3.7-6.4c-0.6-0.2-1.1-0.6-1.1-0.6c7.6-4.1,15.2-8.3,22.7-12.4c0.7-2,1.4-4.1,2-6.2c1.7,0.7,3.4,1.5,5,2.2
		c0.2-0.3,0.4-0.5,0.6-0.8c-0.9-1.6-1.8-3.2-3-5.2c-1.4,0.7-2.7,1.8-4,1.7c-1.7-0.1-4.5-0.8-4.8-1.7c-0.5-2-2.6-4.9,1-6.4
		c5.8-2.4,10.6-5.7,14.2-11.2c2.5-3.9,18.5-5.1,23.1-3.4c4.4,1.7,9.2,2.5,13.7,3.8c1.2,0.3,2.4,1,3.5,1.5c0,0.5,0.1,1.1,0.1,1.6
		c-2.9,0.4-5.8,0.9-8.7,1.3c1.2,2.5,4.9,3.2,7.7,0.7c1.8-1.7,5.9-0.9,5.4-4.9c1.2,0.5,2.5,1,2.9,1.1c9.9-1.5,19.3-2.9,28.9-4.3
		c0.4-1,0.6-3.7,2-4.5c1.1-0.7,3.6,1.1,5.5,1.1c2.1,0.1,4.4-0.3,6.4-1c5.6-1.9,11-4.5,16.7-5.9c8.3-2,16.9-2.2,25.4-0.7
		c0.3,0.1,0.7,0.1,0.9,0.3c8,6.5,17.3,4.7,26.4,4.5c1.4,0,3.3,0,4.3,0.8c5.8,4.9,11.5,2.3,17.7,1c4.5-0.9,9.5,0.3,14.3,0.8
		c3.1,0.3,6.1,1.2,9.2,1.7c4,0.7,8,1.6,12,2c5.3,0.4,10.7,0.4,16,0.5c2.6,0.1,5.1,0,7.7,0.4c8.4,1.3,16.9,2.8,25.3,4.1
		c3,0.4,5.9,0.7,7.5,5c-4.7-0.7-8.8-1.3-12.9-1.8c-0.1,0.6-0.3,1.1-0.4,1.7c1.7,1,3.4,2.1,5.7,3.5c-5.9,2.2-11.2,4.2-17.3,6.5
		c1.9,2,4.7,3.9,5.9,6.5c1.3,2.7,1.1,6.2,1.6,9.3c-0.4,0.3-0.8,0.6-1.2,0.8c-3.7-2.9-7.4-5.8-11-8.8c-4.8-3.9,1.1-8.6,0-11.6
		c-3.1-0.4-5.3-0.4-7.3-0.9c-5.2-1.2-3.6,2.5-3.5,4.8c-4,0-7.9-0.1-11.7,0c-8,0.2-8,0.2-10.5,8.8c4.6,0.7,9.1,1.6,13.7,2.1
		c3.8,0.4,10,8,8.5,11.1c-2-2.4-4-4.7-6-7.1c2.7,5.1,2.7,10.1,0.8,15.2c-0.4,1.2-1.6,3.1-2.1,3c-6.1-1-5.7,4-6.7,6.5
		c2.4,3.2,4.5,6,6.6,8.8c-1.5,1-3,2-4.6,3.2c-4-9.5-8.1-12.6-14.4-10.8c-0.4-1-0.8-1.9-1.4-3.4c-1.8,1.6-3.3,2.9-5.7,5
		c3.9,0.9,7,1.6,10.6,2.5c-1.2,1.4-2.2,2.6-3.3,3.9c3.9,5.6,11,9.1,8,18.3c-2.9,9-11,8.6-17,11.9c0.4,5.8,0.4,5.8-3.5,5.2
		c-0.1-0.3-0.2-0.7-0.2-1c0-1.5,0.1-3.1,0.2-4.6c-1.6,0.6-3.8,0.8-4.6,1.9c-0.8,1.2-0.7,3.5,0,4.9c0.7,1.5,2.6,2.5,3.9,3.8
		c5,4.6,4.7,8.7-0.6,12.8c-1.2,0.9-2.2,2-3.2,2.9c-3.7-3.2-7.2-6.2-10.9-9.4c-2.6,8.1-1.8,9.3,4.1,14.8c2.5,2.4,3.5,6.4,5.4,10.1
		c-1.5,0.3-2.4,0.5-3.3,0.7C343.8,181.8,343.3,181.4,342.9,180.9z M178.7,104.1c-2.8,3.6-4.8,4.7-6.7-0.3
		c-2.8-7.3-9.1-11.2-15.5-14.7c-0.4,0.5-0.9,1-1.3,1.4c3.5,2.9,7.1,5.9,10.4,8.7c-0.8,1.5-1.7,3.2-2.1,4c-2.3-1.9-4.4-3.7-6.6-5.4
		c-1.4-1.1-3.6-1.7-4.4-3.2c-2-3.5-4.2-3.7-7.2-1.5c-0.6,0.5-1.5,0.8-2.3,0.8c-5.9-0.5-8.9,4-10.7,7.8c-1.7,3.5-4,4.5-6.9,5.6
		c-1.3,0.5-2.7,0.6-4.1,0.9c0,0.5,0.1,1,0.1,1.5c2.5,0,5,0.4,7.3-0.1c7.5-1.4,14.9-3,23.2-4.8c0.2,3.8,0.4,6.1,0.5,8.6
		c5.4,2.3,11.1,4.7,16.9,7c2.5-6.2,3-5.9,9-4.4c6.1,1.6,12.4,2,18.7,2.7c0.8,0.1,2.2-0.7,2.4-1.3c0.9-3.1,1.4-6.3,2-9.4
		c-5.3,0-9.4,0.1-13.5,0c-4.2-0.1-5.1-3.5-6.2-6.7c-0.3-1-1.6-2.1-2.5-2.2c-1.1-0.1-2.2,1-3.5,1.8
		C177,102.2,177.8,103.1,178.7,104.1z M184.7,98.3c0.3,0.4,0.7,0.8,1,1.2c7.8-6.8,16.7-0.1,24.9-1.9c0.1-0.6,0.3-1.1,0.4-1.7
		c-3.2-2.1-6.4-4.1-9.6-6.1c0.3-1.2,0.5-2.3,1.1-4.9c-2.2,1.6-3.8,2.2-4.2,3.2c-1.5,3.5-1.8,3.8-4.6,1c-2.5-2.4-4.6-2.8-6.1,0.8
		C186.5,92.5,185.7,95.5,184.7,98.3z M173.6,63c0.1,0-0.9-0.3-2.2-0.6c1.1-0.8,1.8-1.4,1.8-1.4c-1.4-1.5-2.9-2.7-3.7-4.2
		c-2.3-4.4,3.4-4.3,3.9-7.6c-2.4,0.8-4.1,2.6-6.1,3.5c-4.4,1.9-5.8,4.1-0.8,7.8c-3.8,3.5-7.1,6.7-10.9,10.2
		c4.1-0.3,8.2-0.4,12.3-0.9c0.7-0.1,1.3-1.4,1.9-2.1C171,66.2,172.1,64.8,173.6,63z M230.1,86.7c-3.9-2.3-6.6,0.9-10.2,3.6
		c1.9,2.4,3.7,4.5,5.3,6.9c0.8,1.1,1.9,2.8,1.6,3.7c-2,4.7,2.2,4.8,4.5,5.9c1,0.5,2.9-0.1,4-0.8c0.4-0.2-0.3-2.2-0.6-3.4
		c-0.3-1.6-0.7-3.1-1.1-4.7c-2-2-4.4-4.2-6.4-6.8C226.9,90.7,228.8,88.6,230.1,86.7z M198.6,126.9c2.6,4.3,6,8.3,7.5,13
		c2.4,7.2,6.3,12.7,12.5,16.8C218.7,150.1,205,128.1,198.6,126.9z"/>
	<path class="st0" d="M27.6,36.5c5.3-3.1,15.9-1.5,21,0.2c5.7,1.9,6,8.6,11.9,9.6c-2.7,4.2-5.5,4.5-8.5,1.8
		c-0.4,2.1-0.2,4.9-1.3,5.7c-2.7,1.9-6,2.5-9.3,0.5c-2.6-1.6-5.3-2.9-7.7-4.3c2.9-1.1,6.8-2.5,10.8-4c-4.5-6.6-8.2-6.8-13.1-1.6
		c-1.9,2-4.7,3.1-7.3,4.6c0.5,0.6,1.5,1.7,2.7,3.1c-2.9,0.5-5.3,1.5-7.7,1.3c-7.5-0.5-12.4,0.2-18.3,4.1c-1.4,0.9-3,2.7-3.1,4.2
		c-0.1,1,2.1,2.5,3.6,3.3c3.1,1.7,6.4,3.1,10,4.9c-0.4,1.3-1,3.4-1.6,5.5c0.4,0.3,0.7,0.7,1.1,1c1.3-0.8,3.4-1.5,3.6-2.6
		c0.5-3.1,2.2-3.8,5-4.3c3.7-0.8,5.6-3.2,6-7.4c0.3-2.6,2.2-6.5,4.2-7.2c2.6-0.8,6,1.1,9.1,1.9c0.4,0.1,1.2,0.5,1.2,0.8
		c0.3,8.9,4.2,3.3,7.1,1.8c0.3-0.1,0.6-0.1,1.2-0.1c0.4,0.7,1.3,1.6,1.3,2.4c0.1,4,1.8,6.7,4.7,9.5c1.3,1.3,0.2,5,0.2,8.6
		c0.4,0.9,1.4,3.1,2.9,6.3c-4.7-0.9-8-1.5-12.1-2.3c2.2-2.4,4-4.3,6.3-6.8c-4.3,1.2-7.9,2.2-12.1,3.4c-1.3-0.3-3.6-0.9-5.8-1.4
		c-0.1,0.5-0.3,1-0.4,1.5c0.9,0.3,1.9,0.7,2.6,0.9c-0.3,1.9-0.6,3.7-0.9,5.5c2.2,0,4.4,0,6.6,0c0.2,0.2,0.5,0.4,0.7,0.7
		c-4.1,1.8-8.2,3.6-13,5.6c0.1-1.2,0.1-1.9,0.2-3.4c-3.6,2.3-8.8,1.1-10.5,6.6c-0.3,0.8-2.3,1.1-3.4,1.7c-4.7,2.4-9.4,4.6-10.9,10.5
		c-0.3,1.4-2.5,2.6-4.1,3.4c-6.8,3.4-13.8,6.6-9.5,17c-3.6-0.9-6.3-0.7-5.5-4.9c0.4-2.1-8-3.9-11.4-2.8c-2.3,0.7-4.9,1-7.4,0.8
		c-3.7-0.3-9.9,3.2-11.1,6.8c-1,3.1-2.8,6.4-2.5,9.4c0.2,2.6,2.3,6.3,4.5,7.2c2.7,1.1,6.4,0.3,8.5-3.2c1.1-1.8,3.6-2.7,5.5-4
		c0.6,0.4,1.2,0.8,1.8,1.2c-1.1,3.6-2.2,7.1-3.4,10.9c0.4,0.2,0.7,0.5,1.1,0.6c8.1,0.5,8.1,0.4,7,8.7c-0.5,3.8,2.6,6.4,6.4,5.8
		c2.3-0.4,4.6-0.1,7.2-0.1c2.4-1.5,5.1-4,8.3-4.9c2.8-0.8,6.1,0.1,9.1,0.4c3.1,0.3,6.2,0.6,9.3,1.2c2.1,0.4,4.6,0.8,6.1,2.2
		c4,3.4,6.7,8,13.3,7.9c5.2-0.1,7.2,5,9.1,9.3c0.6,1.4,1.6,3.2,2.8,3.6c5.6,2.1,11.4,3.5,17,5.7c3.8,1.4,7.7,3.1,10.7,5.7
		c1.4,1.2,1.7,6,0.5,7.2c-6.4,6.2-6.9,14.1-8.2,22.1c-0.7,4.1-2.4,7.8-8.2,8.5c-4,0.5-7.5,2.8-8.1,8.9c-0.5,5.2-4.8,10.2-8.1,14.9
		c-0.7,1.1-3.9,0.5-5.9,0.7c3.6,6.1,3.5,6.1-3.8,8.5c-0.9,0.3-1.6,1.3-2.3,2.1c-1.1,1.2-2.1,2.4-3.4,3.7c4,3-0.1,6-1.7,9.4
		c1.5,0.9,2.9,1.8,4.2,2.6c-2.9,7.3-2.9,7.3,6.9,15.1c-5.9,2.4-14.1-0.2-19.8-6.8c-4-4.5-6.7-9.7-4.9-16.1c0.1-0.5-2.2-1.3-2.4-2.2
		c-1.1-4.3-2.2-8.6-2.5-13c-0.9-11.7-1.2-23.4-2.3-35c-0.2-2.2-2.6-5.2-4.7-5.9c-7.2-2.3-10-8.2-13.4-13.8c-1.9-3.1-4.3-5.8-6.1-9
		c-0.8-1.5-0.7-3.6-0.7-5.4c0-0.7,1-1.7,0.8-2.1c-2.3-4.5,1-7.1,3.3-10c4.4-5.6,4.4-8.3-0.1-14.8c-1.1,1.2-2.1,2.4-4.1,4.5
		c-3.6-3.6-7.1-7.3-10.7-10.7c-1.2-1.2-2.8-2.1-4.3-3c-2.9-1.7-6-3.2-9-4.8c-1-0.5-2.2-1.3-3.1-1.1c-7.6,1.9-12.6-3.7-18.5-6.5
		c-0.5-0.2-1.2-1.2-1.1-1.5c2.2-6.8-4.3-9.9-6.2-14.9c-1.2-3.1-3.1-5.8-4.8-8.8c-2,1.1-2,1.1,0.7,7.3c1.2,2.8,2.1,5.8,3.1,8.6
		c-0.5,0.3-1.1,0.5-1.6,0.8c-1.8-3.7-3.2-7.6-5.4-11c-2.7-4.1-0.1-9.8-5.3-13.6c-2.3-1.7-1.8-8.3-1.1-12.5c0.5-2.9,3.5-5.4,5.3-8.1
		c2.3-3.3,6.1-5.7,3.6-11.2c-1.1-2.5,1-6.4,1.7-9.7c-0.4,0-0.8,0-1.2,0c-0.5-1.3-1.6-2.6-1.4-3.8c0.8-4.3-1.2-5.3-5.1-6.5
		c-7-2.1-13.3,2.4-20,0.8c-4.5-1.1-9-1.8-13.6-2.7c0-0.8,0-1.6,0.1-2.4c4.3-1.2,8.6-2.3,13.7-3.7c-2.5-0.5-4.2-0.8-5.9-1.1
		c0-0.6-0.1-1.2-0.1-1.8c3.6-0.6,7.2-1.3,11.2-2c-0.7-2.8,1.3-3.3,4.3-4.4c13.8-5.2,27.4-2.8,41.2-0.3c2.8,0.5,6,0.2,8.8-0.5
		c6.9-1.6,13.6-0.6,20.4,0.5c1.5,0.3,3.4-1.7,5.2-2.6c-0.3-0.5-0.5-1-0.8-1.5c-2.4,0.3-4.8,0.6-7.1,0.8c2.4-3.8,5.8-6,10-5.8
		c2.9,0.2,5.7,1.7,8.6,1.9c4.2,0.3,8.5,0.1,12.6,0.1c-3.1,2.4-0.8,10.8-9.2,8c3.7,1.6,6.8,3.3,9.9-0.5c1.9-2.4,4.1-2.2,4.9,2
		c2.3-4.1,1.3-6.4-4.1-7.8c4.8-1.5,7.6-4.6,11.1-0.9C23.8,32.3,27.2,31.9,27.6,36.5c-7.1-1-7.7,0.1-4.5,8.8c1.7-1,3.3-2.1,5.5-3.4
		C24.9,40.2,23.7,38.4,27.6,36.5z M-2.5,86.3c-2.5-4.8-5.7-4.7-10.3-0.7C-9.7,85.7-6.5,86-2.5,86.3z"/>
	<path class="st0" d="M396.5,216.2c3.5-7.4,9.5-7.1,16.7-5.6c-0.9,2-1.8,3.9-2.9,6.1c2.5,1.7,5.1,3.6,8.8,6.1c2-5.3,3.7-10,6-16.2
		c2,5.5,3.2,9.6,5,13.5c1.9,4.2,4.2,8.1,6.6,12.1c4.8,8,3.6,15.4-3.4,21.5c-3.4,2.9-6.5,6.1-9.7,9.3c-3.1,3.2-15.1,5.1-18.9,2.7
		c-0.7-0.5-1.3-1.4-1.5-2.3c-0.5-2-0.7-4.1-1.2-6.6c-1.5,0.5-2.7,0.9-3.8,1.2c-4.2-7.2-11.7-7.8-21.3-3.1c-4.8,2.4-10.6,2.8-16,4
		c-0.9,0.2-2-0.7-1.6-0.6c0.3-5.2,1.1-9.6,0.7-13.9c-1-9.7,2.5-14.6,13.8-17.3c3.5-0.8,5.8-2,7.6-5.4
		C383.9,216.6,391.6,213.9,396.5,216.2z"/>
	<path class="st0" d="M416.1,202.5c1.6-5,0.5-6.5-5.1-8.7c-2.2-0.9-4.3-2.5-6-4.3c-0.7-0.7,0-2.7,0.1-4.1c1.4,0.6,3.1,1,4.1,2
		c0.9,0.9,1.1,2.5,1.5,3.8c2.6-1.2,4.9-3.2,6.6-2.8c5.1,1.3,10.6,2.7,14.6,5.8c4.1,3.2,6.7,8.5,9.9,12.9c-0.4,0.5-0.7,0.9-1.1,1.4
		c-2.4-1.7-4.7-3.7-7.2-5.1c-1.4-0.8-4.1-1.3-5-0.5c-2.6,2.4-4.7,2.4-7.5,0.6C419.7,202.6,417.8,202.8,416.1,202.5z"/>
	<path class="st0" d="M357.1,182.9c5.9-4.5,11-8.4,17.1-13c0.6,0.8,1.7,2.3,2.1,2.8c0,3.4,0,5.8,0,8.3c0,0.8,0,1.8-0.3,2.5
		c-1.2,2.7-2.4,5.3-3.8,7.8c-0.4,0.7-1.3,1.5-2,1.7C362.5,194.6,356.6,189.3,357.1,182.9z"/>
	<path class="st0" d="M233.7,210.8c-0.2,3,0.1,5.6-0.5,7.9c-1.5,5.2-3.6,10.3-5.4,15.4c-1.1,3.1-2.7,5.9-6.3,4.6
		c-3.8-1.4-2.7-5.2-2.4-8.2c0.3-2.7,0.9-5.3,1.7-7.9c0.4-1.3,1.1-2.8,2.1-3.6C225.9,216.4,229.2,214.1,233.7,210.8z"/>
	<path class="st0" d="M342.9,180.9c0.4,0.4,0.9,0.9,1.3,1.3c2.4,2.4,2.3,7.3,7.3,7c0.4,0,0.9,0.3,1.4,0.3c1.3,0.2,2.6,0.3,3.9,0.5
		c-0.2,0.9-0.4,2.5-0.6,2.5c-1.3,0-2.7-0.4-4-0.6c-0.3,0-0.6,0.1-1.2,0.2c-0.4,1.4-0.8,3-1.5,5.5c-1.9-1.2-4-1.9-5.2-3.3
		c-5.4-6.8-10.5-13.7-15.3-21.6c2.1,1.1,4.2,2.1,6.2,3.2C337.7,177.7,340.3,179.3,342.9,180.9z"/>
	<path class="st0" d="M399.3,98.3c5.9,0,5.3,2,6.6,11.6c-5.2,2.6-10.2,5.1-15.2,7.6c0.1,0.5,0.2,1,0.3,1.5c-1.2-1.4-2.5-2.9-4.6-5.3
		c3.1-1.6,5.5-3.4,8.3-4.2C399.7,108,401.6,104.1,399.3,98.3z"/>
	<path class="st0" d="M124.4,78.3c0.8-2.3,1.7-4.6,2.7-7.4c-0.5-0.4-2-1-2.6-2.1c-0.7-1.3-1.4-3.3-0.9-4.4c0.6-1.2,2.6-2.3,3.9-2.2
		c0.9,0,1.8,2.1,2.5,3.3c1.8,3,3.5,6,5.8,9.8c-1.3,5.1-7.2,1.1-10.1,3.7C125.2,78.9,124.8,78.6,124.4,78.3z"/>
	<path class="st0" d="M441,281.5c7.7-3.7,14.7-7.2,21.8-10.6c0.2,0.4,0.4,0.8,0.6,1.3C458.8,277.9,445.7,284,441,281.5z"/>
	<path class="st0" d="M381.2,192.4c-0.5,1.3-1,2.8-1.5,4.2c-0.5,0-0.9-0.1-1.4-0.1c0-3.4,0-6.7,0-10c3,0,5.1,0,6.7,0
		c0.3,3.2,0.5,6.5,0.9,10.9C383.9,195.4,382.6,194,381.2,192.4z"/>
	<path class="st0" d="M471.9,259.5c1.1,1.9,2.4,4.1,4.1,6.9c-2.6,1.8-6.1,4.1-9.5,6.4c-0.3-0.2-0.6-0.4-0.9-0.6
		C467.8,267.9,469.9,263.7,471.9,259.5z"/>
	<path class="st0" d="M350.4,197.4c6.1,1.3,12.2,2.5,18.3,3.8c-0.2,0.8-0.3,1.6-0.5,2.4c-6.1-1.2-12.3-2.3-18.4-3.5
		C350,199.2,350.2,198.3,350.4,197.4z"/>
	<path class="st0" d="M123.4,69.5c-0.3,5.3-3.4,6.7-7.8,6.7C116.1,69.9,117.6,68.6,123.4,69.5z"/>
	<path class="st0" d="M407.3,93.3c-2.8,1.2-4.1,2-5.6,2.4c-1.2,0.4-2.5,0.6-4.3,0.9c0-2.3,0-4.6,0-7C400.3,90.7,403,91.7,407.3,93.3
		z"/>
	<path class="st0" d="M407,277.1c0.2-5.4,0.2-5.4,6.9-5.6C413.5,275.7,410.7,276.6,407,277.1z"/>
	<path class="st0" d="M297.8,164.5c0.7,2.1,1.4,4.2,1.9,6.4c0,0.1-1.8,0.6-2.8,1c-0.5-2.2-1-4.5-1.5-6.7
		C296.2,165,297,164.7,297.8,164.5z"/>
</g>
</svg>
